<svg xmlns="http://www.w3.org/2000/svg" width="980" height="220" viewBox="0 0 980 220" role="img" aria-label="TabVerdict SHOW/RIFT logo">
  <defs>
    <linearGradient id="lime" x1="0" x2="1" y1="0" y2="1">
      <stop offset="0" stop-color="#ecff85"/>
      <stop offset="1" stop-color="#a8ff1f"/>
    </linearGradient>
    <filter id="glow" x="-40%" y="-40%" width="180%" height="180%">
      <feGaussianBlur stdDeviation="8" result="blur"/>
      <feColorMatrix in="blur" type="matrix" values="0 0 0 0 0.75 0 0 0 0 1 0 0 0 0 0.15 0 0 0 .65 0"/>
      <feBlend in="SourceGraphic"/>
    </filter>
  </defs>
  <rect width="980" height="220" rx="28" fill="#0d0d0d"/>
  <rect x="1" y="1" width="978" height="218" rx="27" fill="none" stroke="#2f3327"/>
  <g transform="translate(48 42)" filter="url(#glow)">
    <rect width="136" height="136" rx="24" fill="url(#lime)"/>
    <path d="M36 36h64v18H77v50H59V54H36z" fill="#0d0d0d"/>
    <path d="M90 78c0-16 12-28 30-28 8 0 16 2 22 7l-10 14c-3-2-7-4-12-4-8 0-13 5-13 12s5 12 13 12c5 0 9-1 13-4l10 14c-6 5-14 7-23 7-18 0-30-12-30-30z" fill="#0d0d0d" opacity=".88" transform="translate(-14 8)"/>
  </g>
  <text x="218" y="100" fill="#f6f2e8" font-family="Inter,Arial,sans-serif" font-size="54" font-weight="900">TabVerdict</text>
  <text x="220" y="146" fill="#d6ff3f" font-family="Inter,Arial,sans-serif" font-size="24" font-weight="800" letter-spacing="3">SHOW/RIFT EDITION</text>
  <text x="220" y="179" fill="#a7a7a7" font-family="Inter,Arial,sans-serif" font-size="20">Turn screenshots into launch-ready clickable product stories.</text>
  <path d="M806 54c46 0 82 36 82 82" fill="none" stroke="#d6ff3f" stroke-width="12" stroke-linecap="round"/>
  <circle cx="806" cy="54" r="10" fill="#d6ff3f"/>
  <circle cx="888" cy="136" r="10" fill="#d6ff3f"/>
</svg>
